<mxfile host="app.diagrams.net" modified="2023-02-07T09:59:41.896Z" agent="5.0 (Windows NT 10.0; Win64; x64) AppleWebKit/537.36 (KHTML, like Gecko) Chrome/109.0.0.0 Safari/537.36" etag="Rc64VGAt-EB7Hh6Jb2cE" version="20.8.17" type="github">
  <diagram name="第 1 页" id="LWo7OhVAGvyze3i0qZ0i">
    <mxGraphModel dx="1434" dy="756" grid="1" gridSize="10" guides="1" tooltips="1" connect="1" arrows="1" fold="1" page="1" pageScale="1" pageWidth="827" pageHeight="1169" math="0" shadow="0">
      <root>
        <mxCell id="0" />
        <mxCell id="1" parent="0" />
        <mxCell id="172-SjuYZvauCXoFiv8f-11" value="" style="rounded=1;whiteSpace=wrap;html=1;" vertex="1" parent="1">
          <mxGeometry x="510" y="590" width="370" height="230" as="geometry" />
        </mxCell>
        <mxCell id="172-SjuYZvauCXoFiv8f-15" value="" style="rounded=1;whiteSpace=wrap;html=1;" vertex="1" parent="1">
          <mxGeometry x="410" y="210" width="440" height="270" as="geometry" />
        </mxCell>
        <mxCell id="172-SjuYZvauCXoFiv8f-26" style="edgeStyle=orthogonalEdgeStyle;rounded=0;orthogonalLoop=1;jettySize=auto;html=1;entryX=1;entryY=0.5;entryDx=0;entryDy=0;" edge="1" parent="1" source="172-SjuYZvauCXoFiv8f-1" target="172-SjuYZvauCXoFiv8f-4">
          <mxGeometry relative="1" as="geometry">
            <Array as="points">
              <mxPoint x="710" y="40" />
            </Array>
          </mxGeometry>
        </mxCell>
        <mxCell id="172-SjuYZvauCXoFiv8f-1" value="&lt;font style=&quot;vertical-align: inherit;&quot;&gt;&lt;font style=&quot;vertical-align: inherit;&quot;&gt;原对象&lt;/font&gt;&lt;/font&gt;" style="rounded=1;whiteSpace=wrap;html=1;" vertex="1" parent="1">
          <mxGeometry x="635" y="225" width="120" height="60" as="geometry" />
        </mxCell>
        <mxCell id="172-SjuYZvauCXoFiv8f-4" value="&lt;font style=&quot;vertical-align: inherit;&quot;&gt;&lt;font style=&quot;vertical-align: inherit;&quot;&gt;代理对象&lt;/font&gt;&lt;/font&gt;" style="rounded=0;whiteSpace=wrap;html=1;" vertex="1" parent="1">
          <mxGeometry x="560" y="10" width="120" height="60" as="geometry" />
        </mxCell>
        <mxCell id="172-SjuYZvauCXoFiv8f-12" style="edgeStyle=orthogonalEdgeStyle;rounded=0;orthogonalLoop=1;jettySize=auto;html=1;entryX=0.392;entryY=0.983;entryDx=0;entryDy=0;entryPerimeter=0;" edge="1" parent="1" source="172-SjuYZvauCXoFiv8f-8" target="172-SjuYZvauCXoFiv8f-1">
          <mxGeometry relative="1" as="geometry">
            <Array as="points">
              <mxPoint x="640" y="473" />
              <mxPoint x="682" y="473" />
            </Array>
          </mxGeometry>
        </mxCell>
        <mxCell id="172-SjuYZvauCXoFiv8f-6" value="&lt;font style=&quot;vertical-align: inherit;&quot;&gt;&lt;font style=&quot;vertical-align: inherit;&quot;&gt;Aop增强或者事务控制&lt;/font&gt;&lt;/font&gt;" style="text;html=1;align=center;verticalAlign=middle;resizable=0;points=[];autosize=1;strokeColor=none;fillColor=none;" vertex="1" parent="1">
          <mxGeometry x="655" y="110" width="140" height="30" as="geometry" />
        </mxCell>
        <mxCell id="172-SjuYZvauCXoFiv8f-9" style="edgeStyle=orthogonalEdgeStyle;rounded=0;orthogonalLoop=1;jettySize=auto;html=1;" edge="1" parent="1" source="172-SjuYZvauCXoFiv8f-7" target="172-SjuYZvauCXoFiv8f-8">
          <mxGeometry relative="1" as="geometry" />
        </mxCell>
        <mxCell id="172-SjuYZvauCXoFiv8f-20" style="edgeStyle=orthogonalEdgeStyle;rounded=0;orthogonalLoop=1;jettySize=auto;html=1;entryX=0.5;entryY=1;entryDx=0;entryDy=0;startArrow=none;exitX=0.5;exitY=0;exitDx=0;exitDy=0;" edge="1" parent="1" source="172-SjuYZvauCXoFiv8f-7" target="172-SjuYZvauCXoFiv8f-17">
          <mxGeometry relative="1" as="geometry">
            <Array as="points">
              <mxPoint x="790" y="510" />
              <mxPoint x="767" y="510" />
            </Array>
          </mxGeometry>
        </mxCell>
        <mxCell id="172-SjuYZvauCXoFiv8f-29" style="edgeStyle=orthogonalEdgeStyle;rounded=0;orthogonalLoop=1;jettySize=auto;html=1;entryX=0.5;entryY=1;entryDx=0;entryDy=0;" edge="1" parent="1" source="172-SjuYZvauCXoFiv8f-7" target="172-SjuYZvauCXoFiv8f-1">
          <mxGeometry relative="1" as="geometry">
            <Array as="points">
              <mxPoint x="740" y="473" />
              <mxPoint x="695" y="473" />
            </Array>
          </mxGeometry>
        </mxCell>
        <mxCell id="172-SjuYZvauCXoFiv8f-7" value="&lt;font style=&quot;vertical-align: inherit;&quot;&gt;&lt;font style=&quot;vertical-align: inherit;&quot;&gt;方法一&lt;/font&gt;&lt;/font&gt;" style="ellipse;whiteSpace=wrap;html=1;" vertex="1" parent="1">
          <mxGeometry x="730" y="660" width="120" height="80" as="geometry" />
        </mxCell>
        <mxCell id="172-SjuYZvauCXoFiv8f-14" style="edgeStyle=orthogonalEdgeStyle;rounded=0;orthogonalLoop=1;jettySize=auto;html=1;" edge="1" parent="1" source="172-SjuYZvauCXoFiv8f-8" target="172-SjuYZvauCXoFiv8f-16">
          <mxGeometry relative="1" as="geometry">
            <mxPoint x="510" y="370" as="targetPoint" />
          </mxGeometry>
        </mxCell>
        <mxCell id="172-SjuYZvauCXoFiv8f-8" value="&lt;font style=&quot;vertical-align: inherit;&quot;&gt;&lt;font style=&quot;vertical-align: inherit;&quot;&gt;&lt;font style=&quot;vertical-align: inherit;&quot;&gt;&lt;font style=&quot;vertical-align: inherit;&quot;&gt;方法二&lt;/font&gt;&lt;/font&gt;&lt;/font&gt;&lt;/font&gt;" style="ellipse;whiteSpace=wrap;html=1;" vertex="1" parent="1">
          <mxGeometry x="540" y="660" width="120" height="80" as="geometry" />
        </mxCell>
        <mxCell id="172-SjuYZvauCXoFiv8f-10" value="&lt;font style=&quot;vertical-align: inherit;&quot;&gt;&lt;font style=&quot;vertical-align: inherit;&quot;&gt;调用&lt;/font&gt;&lt;/font&gt;" style="text;html=1;align=center;verticalAlign=middle;resizable=0;points=[];autosize=1;strokeColor=none;fillColor=none;" vertex="1" parent="1">
          <mxGeometry x="670" y="680" width="50" height="30" as="geometry" />
        </mxCell>
        <mxCell id="172-SjuYZvauCXoFiv8f-13" value="&lt;font style=&quot;vertical-align: inherit;&quot;&gt;&lt;font style=&quot;vertical-align: inherit;&quot;&gt;内部方法&lt;/font&gt;&lt;/font&gt;" style="text;html=1;align=center;verticalAlign=middle;resizable=0;points=[];autosize=1;strokeColor=none;fillColor=none;" vertex="1" parent="1">
          <mxGeometry x="670" y="770" width="70" height="30" as="geometry" />
        </mxCell>
        <mxCell id="172-SjuYZvauCXoFiv8f-32" style="edgeStyle=orthogonalEdgeStyle;rounded=0;orthogonalLoop=1;jettySize=auto;html=1;" edge="1" parent="1" source="172-SjuYZvauCXoFiv8f-16" target="172-SjuYZvauCXoFiv8f-4">
          <mxGeometry relative="1" as="geometry">
            <Array as="points">
              <mxPoint x="540" y="130" />
              <mxPoint x="620" y="130" />
            </Array>
          </mxGeometry>
        </mxCell>
        <mxCell id="172-SjuYZvauCXoFiv8f-16" value="&lt;font style=&quot;vertical-align: inherit;&quot;&gt;&lt;font style=&quot;vertical-align: inherit;&quot;&gt;增强方法二&lt;/font&gt;&lt;/font&gt;" style="ellipse;whiteSpace=wrap;html=1;" vertex="1" parent="1">
          <mxGeometry x="480" y="330" width="120" height="80" as="geometry" />
        </mxCell>
        <mxCell id="172-SjuYZvauCXoFiv8f-33" style="edgeStyle=orthogonalEdgeStyle;rounded=0;orthogonalLoop=1;jettySize=auto;html=1;" edge="1" parent="1" source="172-SjuYZvauCXoFiv8f-17" target="172-SjuYZvauCXoFiv8f-4">
          <mxGeometry relative="1" as="geometry">
            <mxPoint x="630" y="80" as="targetPoint" />
            <Array as="points">
              <mxPoint x="580" y="370" />
            </Array>
          </mxGeometry>
        </mxCell>
        <mxCell id="172-SjuYZvauCXoFiv8f-17" value="&lt;font style=&quot;vertical-align: inherit;&quot;&gt;&lt;font style=&quot;vertical-align: inherit;&quot;&gt;&lt;font style=&quot;vertical-align: inherit;&quot;&gt;&lt;font style=&quot;vertical-align: inherit;&quot;&gt;增强方法一&lt;/font&gt;&lt;/font&gt;&lt;/font&gt;&lt;/font&gt;" style="ellipse;whiteSpace=wrap;html=1;" vertex="1" parent="1">
          <mxGeometry x="707" y="330" width="120" height="80" as="geometry" />
        </mxCell>
        <mxCell id="172-SjuYZvauCXoFiv8f-18" value="&lt;font style=&quot;vertical-align: inherit;&quot;&gt;&lt;font style=&quot;vertical-align: inherit;&quot;&gt;开启Aop增强&lt;/font&gt;&lt;/font&gt;" style="text;html=1;align=center;verticalAlign=middle;resizable=0;points=[];autosize=1;strokeColor=none;fillColor=none;" vertex="1" parent="1">
          <mxGeometry x="400" y="350" width="90" height="30" as="geometry" />
        </mxCell>
        <mxCell id="172-SjuYZvauCXoFiv8f-22" value="&lt;font style=&quot;vertical-align: inherit;&quot;&gt;&lt;font style=&quot;vertical-align: inherit;&quot;&gt;增强方法&lt;/font&gt;&lt;/font&gt;" style="text;html=1;align=center;verticalAlign=middle;resizable=0;points=[];autosize=1;strokeColor=none;fillColor=none;" vertex="1" parent="1">
          <mxGeometry x="530" y="160" width="70" height="30" as="geometry" />
        </mxCell>
        <mxCell id="172-SjuYZvauCXoFiv8f-24" value="&lt;font style=&quot;vertical-align: inherit;&quot;&gt;&lt;font style=&quot;vertical-align: inherit;&quot;&gt;&lt;font style=&quot;vertical-align: inherit;&quot;&gt;&lt;font style=&quot;vertical-align: inherit;&quot;&gt;如果我们使用方法一的内部调整使用了方法二，相当于是&lt;br&gt;我们在增强方法一内增加增强代码然后调用源对象的方法一&lt;br&gt;这就引发了问题&lt;br&gt;&lt;/font&gt;&lt;/font&gt;&lt;/font&gt;&lt;/font&gt;" style="text;html=1;align=center;verticalAlign=middle;resizable=0;points=[];autosize=1;strokeColor=none;fillColor=none;" vertex="1" parent="1">
          <mxGeometry x="787" y="260" width="340" height="60" as="geometry" />
        </mxCell>
        <mxCell id="172-SjuYZvauCXoFiv8f-35" value="" style="edgeStyle=orthogonalEdgeStyle;rounded=0;orthogonalLoop=1;jettySize=auto;html=1;" edge="1" parent="1" source="172-SjuYZvauCXoFiv8f-30" target="172-SjuYZvauCXoFiv8f-34">
          <mxGeometry relative="1" as="geometry" />
        </mxCell>
        <mxCell id="172-SjuYZvauCXoFiv8f-30" value="方法二的增强方法二是不会被执行到的" style="text;html=1;align=center;verticalAlign=middle;resizable=0;points=[];autosize=1;strokeColor=none;fillColor=none;" vertex="1" parent="1">
          <mxGeometry x="842" y="325" width="230" height="30" as="geometry" />
        </mxCell>
        <mxCell id="172-SjuYZvauCXoFiv8f-34" value="实际被执行的是方法二而不是增强方法二" style="whiteSpace=wrap;html=1;" vertex="1" parent="1">
          <mxGeometry x="897" y="420" width="120" height="60" as="geometry" />
        </mxCell>
      </root>
    </mxGraphModel>
  </diagram>
</mxfile>
